<svg width="330" height="109" viewBox="0 0 330 109" fill="none" xmlns="http://www.w3.org/2000/svg">
<g clip-path="url(#clip0_1_436)">
<g filter="url(#filter0_i_1_436)">
<path d="M85.8708 39.365L61.7681 20.618C59.6529 18.9725 57.0495 18.0791 54.3696 18.0791C51.6897 18.0791 49.0863 18.9725 46.9712 20.618L22.864 39.365C21.4152 40.4917 20.2431 41.9345 19.4371 43.5833C18.6311 45.2321 18.2125 47.0433 18.2134 48.8786V81.4192C18.2134 83.8165 19.1657 86.1157 20.8609 87.8108C22.556 89.506 24.8551 90.4583 27.2524 90.4583H81.4868C83.8841 90.4583 86.1832 89.506 87.8784 87.8108C89.5735 86.1157 90.5259 83.8165 90.5259 81.4192V48.8786C90.5259 45.159 88.8084 41.6474 85.8708 39.365Z" fill="white"/>
</g>
<path d="M85.8708 39.365L61.7681 20.618C59.6529 18.9725 57.0495 18.0791 54.3696 18.0791C51.6897 18.0791 49.0863 18.9725 46.9712 20.618L22.864 39.365C21.4152 40.4917 20.2431 41.9345 19.4371 43.5833C18.6311 45.2321 18.2125 47.0433 18.2134 48.8786V81.4192C18.2134 83.8165 19.1657 86.1157 20.8609 87.8108C22.556 89.506 24.8551 90.4583 27.2524 90.4583H81.4868C83.8841 90.4583 86.1832 89.506 87.8784 87.8108C89.5735 86.1157 90.5259 83.8165 90.5259 81.4192V48.8786C90.5259 45.159 88.8084 41.6474 85.8708 39.365Z" stroke="white" stroke-width="10.1689" stroke-linecap="round" stroke-linejoin="round"/>
<path d="M72.3125 67.7929C62.3243 73.8175 46.1354 73.8175 36.1562 67.7929" stroke="#4C4DDC" stroke-width="10.1689" stroke-linecap="round" stroke-linejoin="round"/>
</g>
<path d="M140.269 47.4308C138.702 47.4308 137.341 47.2348 136.186 46.843C135.052 46.4306 134.165 45.7913 133.526 44.9251C132.907 44.0384 132.556 42.8629 132.474 41.3987L131.917 28.4375H136.712L137.238 39.6045C137.279 40.4501 137.423 41.0997 137.671 41.5534C137.918 42.0071 138.279 42.3164 138.753 42.4814C139.228 42.6257 139.836 42.6979 140.578 42.6979C141.465 42.6979 142.094 42.9248 142.465 43.3785C142.837 43.8115 143.022 44.358 143.022 45.0179C143.022 45.7191 142.785 46.2965 142.311 46.7502C141.857 47.2039 141.176 47.4308 140.269 47.4308ZM134.175 44.3993C132.732 44.7086 131.34 44.853 129.999 44.8323C128.679 44.7911 127.493 44.5642 126.442 44.1518C125.411 43.7393 124.596 43.1207 123.998 42.2958C123.4 41.4709 123.101 40.4088 123.101 39.1096C123.101 37.9341 123.348 36.8824 123.843 35.9544C124.338 35.0057 125.039 34.1808 125.947 33.4797C126.854 32.7785 127.916 32.1908 129.133 31.7165C130.37 31.2215 131.711 30.84 133.154 30.5719L133.587 35.3666C132.742 35.4079 131.969 35.5213 131.267 35.7069C130.566 35.8925 129.958 36.14 129.442 36.4493C128.947 36.7587 128.556 37.1092 128.267 37.5011C127.999 37.8723 127.865 38.2744 127.865 38.7075C127.865 39.0374 127.978 39.3158 128.205 39.5427C128.432 39.7695 128.741 39.9448 129.133 40.0686C129.545 40.1923 130.009 40.2645 130.525 40.2851C131.041 40.3057 131.587 40.2748 132.164 40.1923C132.742 40.1098 133.33 39.9654 133.928 39.7592L134.175 44.3993ZM134.392 25.1895C133.773 25.1895 133.247 24.9729 132.814 24.5399C132.402 24.1068 132.195 23.5912 132.195 22.9932C132.195 22.3745 132.402 21.8486 132.814 21.4156C133.226 20.9825 133.742 20.766 134.361 20.766C134.979 20.766 135.505 20.9825 135.938 21.4156C136.371 21.8486 136.588 22.3745 136.588 22.9932C136.588 23.5912 136.371 24.1068 135.938 24.5399C135.505 24.9729 134.99 25.1895 134.392 25.1895ZM128.947 25.1585C128.329 25.1585 127.803 24.942 127.37 24.5089C126.957 24.0759 126.751 23.5603 126.751 22.9622C126.751 22.3436 126.957 21.828 127.37 21.4156C127.803 20.9825 128.329 20.766 128.947 20.766C129.545 20.766 130.061 20.9825 130.494 21.4156C130.927 21.828 131.144 22.3436 131.144 22.9622C131.144 23.5603 130.927 24.0759 130.494 24.5089C130.061 24.942 129.545 25.1585 128.947 25.1585ZM139.958 47.4308L140.267 42.6979H149.362C150.228 42.6979 150.846 42.9248 151.218 43.3785C151.609 43.8115 151.805 44.358 151.805 45.0179C151.805 45.7191 151.568 46.2965 151.094 46.7502C150.64 47.2039 149.96 47.4308 149.052 47.4308H139.958ZM152.314 27.9943C151.448 27.9943 150.871 27.7056 150.582 27.1282C150.314 26.5507 150.18 25.8908 150.18 25.1484C150.18 24.9216 150.19 24.6844 150.211 24.4369C150.252 24.1688 150.304 23.8698 150.366 23.5399L152.407 23.1068C152.345 23.4574 152.294 23.7873 152.252 24.0967C152.232 24.3854 152.222 24.6432 152.222 24.87C152.222 25.2 152.263 25.4371 152.345 25.5815C152.448 25.7258 152.593 25.798 152.778 25.798C153.026 25.798 153.211 25.6537 153.335 25.3649C153.479 25.0556 153.552 24.4679 153.552 23.6017V22.6737L155.377 22.1169V24.0039C155.377 24.2926 155.418 24.5091 155.5 24.6535C155.604 24.7978 155.758 24.87 155.964 24.87C156.233 24.87 156.408 24.7772 156.49 24.5916C156.593 24.406 156.645 24.1688 156.645 23.8801C156.645 23.5296 156.604 23.179 156.521 22.8284C156.439 22.4572 156.336 22.0963 156.212 21.7457L158.068 21.3126C158.274 21.7045 158.439 22.1582 158.563 22.6737C158.707 23.1687 158.779 23.6224 158.779 24.0348C158.779 24.8391 158.573 25.5299 158.161 26.1074C157.769 26.6848 157.109 26.9735 156.181 26.9735C155.665 26.9735 155.201 26.7982 154.789 26.4476C154.377 26.0764 154.17 25.5815 154.17 24.9628L154.882 25.2412C154.882 26.0867 154.624 26.757 154.108 27.2519C153.614 27.7468 153.015 27.9943 152.314 27.9943ZM148.432 47.4308L148.741 42.6979C149.999 42.6979 150.968 42.6257 151.649 42.4814C152.33 42.3164 152.794 42.0586 153.041 41.708C153.288 41.3368 153.412 40.8522 153.412 40.2542C153.412 39.6355 153.33 38.924 153.165 38.1197C153.02 37.2948 152.824 36.4493 152.577 35.5832C152.35 34.717 152.113 33.9231 151.866 33.2013L156.475 31.9639C156.722 32.6651 156.98 33.49 157.248 34.4386C157.516 35.3666 157.733 36.3359 157.898 37.3464C158.083 38.3569 158.176 39.3571 158.176 40.347C158.176 41.8524 157.918 43.0794 157.403 44.0281C156.908 44.9561 156.217 45.6675 155.33 46.1625C154.443 46.6574 153.412 46.9977 152.237 47.1833C151.061 47.3483 149.793 47.4308 148.432 47.4308ZM156.537 54.6074C155.918 54.6074 155.392 54.3908 154.959 53.9578C154.546 53.5453 154.34 53.0298 154.34 52.4111C154.34 51.7924 154.546 51.2665 154.959 50.8335C155.392 50.4004 155.918 50.1839 156.537 50.1839C157.135 50.1839 157.65 50.4004 158.083 50.8335C158.516 51.2665 158.733 51.7924 158.733 52.4111C158.733 53.0298 158.516 53.5453 158.083 53.9578C157.65 54.3908 157.135 54.6074 156.537 54.6074ZM151.123 54.6074C150.504 54.6074 149.979 54.3908 149.546 53.9578C149.112 53.5453 148.896 53.0298 148.896 52.4111C148.896 51.7924 149.102 51.2665 149.515 50.8335C149.948 50.4004 150.474 50.1839 151.092 50.1839C151.69 50.1839 152.206 50.4004 152.639 50.8335C153.072 51.2665 153.288 51.7924 153.288 52.4111C153.288 53.0298 153.072 53.5453 152.639 53.9578C152.206 54.3908 151.701 54.6074 151.123 54.6074ZM160.338 54.3908L158.73 50.0601C160.586 49.4827 162.071 48.8228 163.184 48.0804C164.298 47.3586 165.102 46.5852 165.597 45.7603C166.092 44.9148 166.34 44.0796 166.34 43.2547C166.34 42.7185 166.247 42.1308 166.061 41.4915C165.876 40.8316 165.618 40.1304 165.288 39.388C164.958 38.6456 164.566 37.8723 164.112 37.068L168.505 34.9336C169.247 36.3153 169.856 37.697 170.33 39.0787C170.804 40.4604 171.042 41.739 171.042 42.9144C171.042 43.8631 170.918 44.8014 170.67 45.7294C170.423 46.6574 170.031 47.5442 169.495 48.3897C168.979 49.2352 168.299 50.0292 167.453 50.7716C166.608 51.514 165.597 52.1842 164.422 52.7823C163.246 53.401 161.885 53.9371 160.338 54.3908ZM182.731 47.4308C180.731 47.4308 179.184 47.2348 178.091 46.843C177.019 46.4306 176.256 45.8119 175.802 44.987C175.369 44.1415 175.122 43.0691 175.06 41.7699L174.379 24.2305H179.174L179.854 39.3571C179.916 40.3263 180.03 41.0481 180.195 41.5224C180.38 41.9968 180.7 42.3164 181.154 42.4814C181.607 42.6257 182.236 42.6979 183.041 42.6979C183.927 42.6979 184.556 42.9248 184.928 43.3785C185.319 43.8115 185.515 44.358 185.515 45.0179C185.515 45.7191 185.278 46.2965 184.804 46.7502C184.35 47.2039 183.659 47.4308 182.731 47.4308ZM182.455 47.4308L182.765 42.7288C183.363 42.7288 183.981 42.7082 184.621 42.667C185.281 42.6257 185.91 42.5742 186.508 42.5123C187.126 42.4298 187.693 42.337 188.209 42.2339C188.725 42.1308 189.158 42.0277 189.508 41.9246C190.189 41.6977 190.756 41.4296 191.21 41.1203C191.684 40.7903 192.034 40.4294 192.261 40.0376C192.509 39.6458 192.632 39.223 192.632 38.7693C192.632 38.4188 192.56 38.0785 192.416 37.7485C192.272 37.3979 192.065 37.1195 191.797 36.9133C191.529 36.6865 191.24 36.5731 190.931 36.5731C190.601 36.5731 190.292 36.6762 190.003 36.8824C189.735 37.0886 189.508 37.367 189.323 37.7176C189.158 38.0682 189.075 38.4703 189.075 38.924C189.075 39.2952 189.158 39.6561 189.323 40.0067C189.488 40.3366 189.735 40.6769 190.065 41.0275C190.416 41.3575 190.859 41.6874 191.395 42.0174L187.003 43.7806C186.508 43.3063 186.064 42.8113 185.672 42.2958C185.281 41.7802 184.971 41.2234 184.744 40.6254C184.518 40.0067 184.404 39.3158 184.404 38.5528C184.404 37.6248 184.6 36.7793 184.992 36.0162C185.384 35.2326 185.889 34.5521 186.508 33.9746C187.147 33.3972 187.858 32.9538 188.642 32.6445C189.426 32.3351 190.22 32.1805 191.024 32.1805C192.241 32.1805 193.313 32.4692 194.241 33.0466C195.19 33.624 195.932 34.3768 196.468 35.3048C197.025 36.2328 197.303 37.233 197.303 38.3053C197.303 39.3571 197.108 40.2954 196.716 41.1203C196.345 41.9246 195.85 42.636 195.231 43.2547C194.612 43.8734 193.921 44.4199 193.158 44.8942C192.416 45.3479 191.674 45.7397 190.931 46.0697C190.477 46.2965 189.9 46.4924 189.199 46.6574C188.518 46.8224 187.786 46.9668 187.003 47.0905C186.219 47.1936 185.435 47.2761 184.652 47.338C183.868 47.3998 183.136 47.4308 182.455 47.4308ZM199.098 47.4308C197.84 47.4308 196.613 47.3689 195.416 47.2452C194.241 47.1008 193.158 46.9049 192.168 46.6574C191.179 46.41 190.343 46.1006 189.663 45.7294L191.797 41.9864C192.416 42.1927 193.138 42.3473 193.963 42.4504C194.808 42.5536 195.695 42.6257 196.623 42.667C197.551 42.6876 198.479 42.6979 199.407 42.6979C200.273 42.6979 200.892 42.9248 201.263 43.3785C201.655 43.8115 201.851 44.358 201.851 45.0179C201.851 45.7191 201.614 46.2965 201.139 46.7502C200.686 47.2039 200.005 47.4308 199.098 47.4308ZM193.839 29.3036C193.22 29.3036 192.694 29.0871 192.261 28.654C191.849 28.221 191.643 27.7054 191.643 27.1074C191.643 26.4887 191.849 25.9628 192.261 25.5297C192.674 25.0967 193.189 24.8801 193.808 24.8801C194.427 24.8801 194.952 25.0967 195.386 25.5297C195.819 25.9628 196.035 26.4887 196.035 27.1074C196.035 27.7054 195.819 28.221 195.386 28.654C194.952 29.0871 194.437 29.3036 193.839 29.3036ZM188.395 29.2727C187.776 29.2727 187.25 29.0562 186.817 28.6231C186.404 28.19 186.198 27.6745 186.198 27.0764C186.198 26.4577 186.404 25.9422 186.817 25.5297C187.25 25.0967 187.776 24.8801 188.395 24.8801C188.993 24.8801 189.508 25.0967 189.941 25.5297C190.374 25.9422 190.591 26.4577 190.591 27.0764C190.591 27.6745 190.374 28.19 189.941 28.6231C189.508 29.0562 188.993 29.2727 188.395 29.2727ZM198.729 47.4308L199.038 42.6979C200.441 42.6979 201.709 42.6154 202.843 42.4504C203.998 42.2648 205.019 42.0174 205.906 41.708C206.792 41.3987 207.525 41.0378 208.102 40.6254C208.7 40.2129 209.154 39.7695 209.463 39.2952C209.772 38.8003 209.927 38.3053 209.927 37.8104C209.927 37.5423 209.865 37.2948 209.741 37.068C209.618 36.8205 209.401 36.6246 209.092 36.4803C208.782 36.3359 208.36 36.2637 207.824 36.2637C207.555 36.2637 207.236 36.2946 206.865 36.3565C206.514 36.4184 206.153 36.5112 205.782 36.6349C205.431 36.738 205.091 36.8824 204.761 37.068C205.256 37.5011 205.751 37.9754 206.246 38.4909C206.761 39.0065 207.246 39.5221 207.7 40.0376C208.174 40.5532 208.597 41.0481 208.968 41.5224C209.381 41.708 209.824 41.873 210.298 42.0174C210.793 42.1617 211.34 42.2855 211.938 42.3886C212.556 42.4917 213.237 42.5742 213.979 42.636C214.742 42.6773 215.588 42.6979 216.516 42.6979C217.403 42.6979 218.032 42.9248 218.403 43.3785C218.795 43.8115 218.991 44.358 218.991 45.0179C218.991 45.7191 218.753 46.2965 218.279 46.7502C217.805 47.2039 217.114 47.4308 216.207 47.4308C214.66 47.4308 213.216 47.307 211.876 47.0596C210.556 46.7915 209.319 46.3996 208.164 45.8841C207.03 45.3685 205.957 44.7189 204.947 43.9353C204.679 43.4816 204.318 43.0072 203.864 42.5123C203.431 41.9968 202.967 41.5018 202.472 41.0275C201.998 40.5326 201.544 40.0892 201.111 39.6973C201.028 39.6149 200.925 39.4086 200.802 39.0787C200.678 38.7487 200.564 38.3878 200.461 37.996C200.379 37.6042 200.338 37.3258 200.338 37.1608C200.338 36.604 200.554 36.0369 200.987 35.4594C201.441 34.882 202.049 34.3458 202.812 33.8509C203.575 33.356 204.441 32.9641 205.411 32.6754C206.401 32.3661 207.442 32.2114 208.535 32.2114C209.917 32.2114 211.061 32.4073 211.969 32.7991C212.876 33.191 213.546 33.7375 213.979 34.4386C214.433 35.1192 214.66 35.9234 214.66 36.8515C214.66 37.9444 214.402 39.0065 213.887 40.0376C213.392 41.0481 212.68 42.0071 211.752 42.9144C210.824 43.8012 209.7 44.5849 208.38 45.2654C207.081 45.9253 205.617 46.4512 203.988 46.843C202.359 47.2348 200.606 47.4308 198.729 47.4308ZM215.942 47.4308L216.252 42.6979C217.138 42.6979 217.778 42.6051 218.169 42.4195C218.582 42.2339 218.829 41.8627 218.912 41.3059C218.994 40.7491 219.015 39.9139 218.974 38.8003L218.386 24.2305H223.212L223.861 39.2952C223.902 40.5119 223.851 41.6255 223.707 42.636C223.583 43.6259 223.263 44.4818 222.748 45.2035C222.232 45.9047 221.428 46.4512 220.335 46.843C219.242 47.2348 217.778 47.4308 215.942 47.4308ZM227.684 47.2761L227.034 24.2305H231.86L232.509 47.2761H227.684ZM242.432 46.3171C242.432 45.8016 242.473 45.2242 242.555 44.5849C242.638 43.9456 242.792 43.2135 243.019 42.3886C243.267 41.5637 243.617 40.5944 244.071 39.4808L248.371 40.9656C248.103 41.6874 247.886 42.3061 247.721 42.8216C247.577 43.3372 247.463 43.8012 247.381 44.2137C247.319 44.6261 247.288 45.0489 247.288 45.4819C247.288 46.3893 247.505 47.1627 247.938 47.802C248.371 48.4619 248.989 48.9568 249.794 49.2868C250.619 49.6167 251.588 49.7817 252.701 49.7817C254.042 49.7817 255.114 49.5755 255.919 49.163C256.743 48.7712 257.352 48.1938 257.744 47.4308C258.136 46.6884 258.383 45.781 258.486 44.7086C258.61 43.6362 258.651 42.4401 258.61 41.1203L258.022 24.2305H262.848L263.374 40.8728C263.415 42.2339 263.353 43.5744 263.188 44.8942C263.044 46.1934 262.745 47.4204 262.291 48.5753C261.837 49.7302 261.188 50.7407 260.342 51.6068C259.517 52.4936 258.465 53.1844 257.187 53.6794C255.929 54.1743 254.393 54.4218 252.578 54.4218C251.175 54.4218 249.866 54.2671 248.649 53.9578C247.432 53.6484 246.35 53.1638 245.401 52.5039C244.473 51.8646 243.741 51.0294 243.205 49.9983C242.689 48.9671 242.432 47.7401 242.432 46.3171ZM266.46 54.3908L265.625 49.8745C267.131 49.7302 268.451 49.5136 269.585 49.2249C270.719 48.9568 271.668 48.5856 272.431 48.1113C273.194 47.637 273.761 47.0183 274.132 46.2553C274.524 45.4716 274.72 44.5127 274.72 43.3785C274.72 42.038 274.534 40.9759 274.163 40.1923C273.792 39.388 273.297 38.9859 272.678 38.9859C272.307 38.9859 271.987 39.1302 271.719 39.4189C271.472 39.7077 271.286 40.0479 271.162 40.4398C271.039 40.8316 270.977 41.1822 270.977 41.4915C270.977 41.739 271.028 41.9761 271.131 42.203C271.255 42.4298 271.513 42.6154 271.905 42.7598C272.297 42.9041 272.895 42.9866 273.699 43.0072C274.524 43.0072 275.637 42.9041 277.04 42.6979H281.401C282.288 42.6979 282.917 42.9248 283.288 43.3785C283.68 43.8115 283.876 44.358 283.876 45.0179C283.876 45.7191 283.639 46.2965 283.165 46.7502C282.69 47.2039 281.999 47.4308 281.092 47.4308H273.39C271.925 47.4308 270.667 47.2452 269.616 46.874C268.564 46.5028 267.76 45.9459 267.203 45.2035C266.646 44.4405 266.368 43.4816 266.368 42.3267C266.368 41.3987 266.522 40.4707 266.832 39.5427C267.162 38.6147 267.615 37.7588 268.193 36.9752C268.791 36.1915 269.482 35.5729 270.265 35.1192C271.049 34.6449 271.905 34.4077 272.833 34.4077C274.194 34.4077 275.359 34.8098 276.328 35.6141C277.298 36.3978 278.04 37.4495 278.555 38.7693C279.092 40.0892 279.36 41.5327 279.36 43.1001C279.36 45.3273 278.865 47.2555 277.875 48.8846C276.885 50.5138 275.431 51.7924 273.513 52.7204C271.595 53.669 269.244 54.2259 266.46 54.3908ZM280.824 47.4308L281.134 42.6979H290.228C291.094 42.6979 291.713 42.9248 292.084 43.3785C292.476 43.8115 292.672 44.358 292.672 45.0179C292.672 45.7191 292.435 46.2965 291.96 46.7502C291.507 47.2039 290.826 47.4308 289.919 47.4308H280.824ZM306.515 29.2727L306.144 27.2311C307.32 27.2311 308.382 27.0661 309.33 26.7362C310.279 26.4062 311.021 26.0041 311.558 25.5297C312.114 25.0348 312.393 24.5605 312.393 24.1068C312.393 23.8181 312.31 23.5603 312.145 23.3334C311.98 23.1066 311.743 22.9932 311.434 22.9932C311.166 22.9932 310.929 23.0963 310.722 23.3025C310.537 23.5087 310.444 23.7665 310.444 24.0759C310.444 24.4677 310.588 24.808 310.877 25.0967C311.186 25.3648 311.547 25.6019 311.96 25.8081L310.537 27.0455C309.939 26.7568 309.413 26.3649 308.959 25.87C308.505 25.3544 308.279 24.7152 308.279 23.9521C308.279 23.0654 308.578 22.3436 309.176 21.7868C309.794 21.2093 310.557 20.9206 311.465 20.9206C312.496 20.9206 313.259 21.2403 313.754 21.8796C314.269 22.5189 314.527 23.251 314.527 24.0759C314.527 25.0451 314.187 25.9009 313.506 26.6433C312.826 27.3858 311.888 27.9838 310.691 28.4375C309.495 28.8912 308.103 29.1696 306.515 29.2727ZM305.631 47.8329C303.693 47.8329 302.074 47.7401 300.775 47.5545C299.496 47.3895 298.455 47.1524 297.651 46.843C296.867 46.5131 296.238 46.1315 295.764 45.6985C295.31 45.2654 294.918 44.7911 294.588 44.2755L295.516 44.0281C295.001 45.0179 294.402 45.7603 293.722 46.2553C293.041 46.7296 292.32 47.0492 291.557 47.2142C290.814 47.3586 290.061 47.4308 289.298 47.4308L289.608 42.6979C290.226 42.6979 290.701 42.5948 291.031 42.3886C291.381 42.1824 291.66 41.8421 291.866 41.3678C292.093 40.8728 292.309 40.2335 292.516 39.4499C292.722 38.6456 292.969 37.6557 293.258 36.4803L297.681 37.5629C297.537 38.1404 297.413 38.6353 297.31 39.0477C297.228 39.4602 297.156 39.8108 297.094 40.0995C297.052 40.3882 297.032 40.6254 297.032 40.811C297.032 41.2028 297.114 41.5534 297.279 41.8627C297.465 42.1514 297.805 42.3886 298.3 42.5742C298.816 42.7392 299.568 42.8732 300.558 42.9763C301.548 43.0588 302.858 43.1001 304.487 43.1001C306.405 43.1001 307.982 43.0382 309.22 42.9144C310.457 42.7701 311.426 42.5742 312.127 42.3267C312.829 42.0792 313.324 41.7802 313.612 41.4296C313.901 41.0584 314.045 40.646 314.045 40.1923C314.045 39.8005 313.963 39.4499 313.798 39.1405C313.633 38.8106 313.365 38.5528 312.994 38.3672C312.622 38.161 312.158 38.0579 311.602 38.0579C310.942 38.0579 310.251 38.2228 309.529 38.5528C308.828 38.8621 308.116 39.2849 307.395 39.8211C306.673 40.3573 305.982 40.9656 305.322 41.6462C304.662 42.3267 304.054 43.0485 303.497 43.8115L298.424 43.1619C299.311 41.8008 300.28 40.5222 301.332 39.3261C302.404 38.13 303.528 37.0783 304.703 36.1709C305.879 35.2635 307.085 34.5521 308.323 34.0365C309.581 33.5209 310.839 33.2632 312.097 33.2632C313.519 33.2632 314.736 33.5519 315.747 34.1293C316.757 34.6861 317.531 35.4594 318.067 36.4493C318.603 37.4186 318.871 38.5528 318.871 39.852C318.871 41.4399 318.428 42.832 317.541 44.0281C316.654 45.2242 315.241 46.1625 313.303 46.843C311.364 47.5029 308.807 47.8329 305.631 47.8329ZM322.396 47.2761L321.808 26.3959H326.634L327.222 47.2761H322.396ZM321.004 24.3233L320.447 22.0961C321.231 21.9724 321.808 21.8693 322.179 21.7868C322.551 21.7043 322.942 21.6115 323.355 21.5084L322.922 22.3745C322.386 22.1889 321.87 21.828 321.375 21.2918C320.901 20.735 320.664 20.0957 320.664 19.3739C320.664 18.6109 320.829 18.0026 321.159 17.5489C321.509 17.0745 321.942 16.7343 322.458 16.528C322.994 16.3218 323.541 16.2187 324.097 16.2187C324.427 16.2187 324.726 16.2393 324.994 16.2806C325.283 16.3218 325.541 16.3837 325.768 16.4662L325.52 18.6625C325.314 18.6212 325.108 18.58 324.902 18.5387C324.695 18.4975 324.469 18.4769 324.221 18.4769C323.891 18.4769 323.613 18.5697 323.386 18.7553C323.18 18.9202 323.077 19.1368 323.077 19.4049C323.077 19.7761 323.2 20.0957 323.448 20.3638C323.695 20.6319 323.984 20.8484 324.314 21.0134C324.644 21.1578 324.922 21.2403 325.149 21.2609L323.602 21.4156C324.159 21.2712 324.685 21.1268 325.18 20.9825C325.675 20.8175 326.139 20.6525 326.572 20.4876L327.222 22.622C326.706 22.8076 326.098 23.0138 325.397 23.2406C324.695 23.4469 323.974 23.6428 323.231 23.8284C322.489 24.014 321.746 24.179 321.004 24.3233Z" fill="white"/>
<path d="M132.269 87.472C130.997 87.472 129.809 87.247 128.707 86.7968C127.605 86.3467 126.643 85.7181 125.82 84.911C124.998 84.1039 124.353 83.1571 123.888 82.0706C123.438 80.9686 123.213 79.7812 123.213 78.5084C123.213 77.2201 123.438 76.0327 123.888 74.9462C124.338 73.8597 124.974 72.9129 125.797 72.1058C126.62 71.2987 127.582 70.6778 128.684 70.2432C129.786 69.7931 130.981 69.5681 132.269 69.5681C133.558 69.5681 134.753 69.7931 135.855 70.2432C136.957 70.6934 137.919 71.322 138.742 72.1291C139.564 72.9207 140.201 73.8597 140.651 74.9462C141.117 76.0327 141.349 77.2201 141.349 78.5084C141.349 79.7812 141.117 80.9686 140.651 82.0706C140.185 83.1571 139.541 84.1039 138.719 84.911C137.896 85.7181 136.934 86.3467 135.832 86.7968C134.745 87.247 133.558 87.472 132.269 87.472ZM132.269 84.585C133.123 84.585 133.907 84.4376 134.621 84.1427C135.335 83.8323 135.956 83.4054 136.483 82.8622C137.027 82.3189 137.438 81.6748 137.717 80.9297C138.012 80.1847 138.16 79.3776 138.16 78.5084C138.16 77.6392 138.012 76.8399 137.717 76.1103C137.438 75.3653 137.027 74.7212 136.483 74.1779C135.956 73.6192 135.335 73.1923 134.621 72.8974C133.907 72.6025 133.123 72.455 132.269 72.455C131.431 72.455 130.655 72.6025 129.941 72.8974C129.227 73.1923 128.599 73.6192 128.055 74.1779C127.528 74.7212 127.116 75.3653 126.821 76.1103C126.526 76.8399 126.379 77.6392 126.379 78.5084C126.379 79.3776 126.526 80.1847 126.821 80.9297C127.116 81.6748 127.528 82.3189 128.055 82.8622C128.599 83.4054 129.227 83.8323 129.941 84.1427C130.655 84.4376 131.431 84.585 132.269 84.585ZM148.426 87.472C147.448 87.472 146.594 87.2547 145.865 86.8201C145.151 86.3855 144.6 85.7802 144.211 85.0041C143.839 84.228 143.653 83.32 143.653 82.2801V74.5272H146.703V82.024C146.703 82.5517 146.804 83.0174 147.005 83.4209C147.223 83.809 147.525 84.1194 147.913 84.3522C148.317 84.5695 148.767 84.6782 149.264 84.6782C149.76 84.6782 150.203 84.5695 150.591 84.3522C150.979 84.1194 151.281 83.8012 151.499 83.3977C151.716 82.9941 151.825 82.5129 151.825 81.9542V74.5272H154.875V87.1926H151.988V84.7015L152.244 85.1438C151.949 85.9199 151.46 86.5019 150.777 86.89C150.11 87.278 149.326 87.472 148.426 87.472ZM162.529 87.472C161.179 87.472 159.999 87.1538 158.99 86.5175C157.997 85.8656 157.314 84.9886 156.942 83.8866L159.223 82.7923C159.549 83.5063 159.999 84.0651 160.574 84.4686C161.163 84.8722 161.815 85.074 162.529 85.074C163.088 85.074 163.53 84.9498 163.856 84.7015C164.182 84.4531 164.345 84.1272 164.345 83.7236C164.345 83.4753 164.275 83.2735 164.136 83.1183C164.012 82.9475 163.833 82.8078 163.6 82.6992C163.383 82.575 163.142 82.4741 162.878 82.3965L160.806 81.8145C159.735 81.504 158.921 81.0306 158.362 80.3943C157.818 79.7579 157.547 79.0051 157.547 78.1359C157.547 77.3598 157.741 76.6846 158.129 76.1103C158.532 75.5205 159.083 75.0626 159.782 74.7367C160.496 74.4107 161.311 74.2478 162.227 74.2478C163.422 74.2478 164.477 74.5349 165.393 75.1092C166.309 75.6835 166.961 76.4906 167.349 77.5306L165.02 78.6248C164.803 78.0505 164.438 77.5926 163.926 77.2512C163.414 76.9097 162.84 76.739 162.203 76.739C161.691 76.739 161.288 76.8554 160.993 77.0882C160.698 77.321 160.55 77.6237 160.55 77.9962C160.55 78.229 160.612 78.4308 160.737 78.6015C160.861 78.7723 161.031 78.912 161.249 79.0206C161.482 79.1293 161.745 79.2302 162.04 79.3233L164.066 79.9286C165.106 80.239 165.905 80.7047 166.464 81.3255C167.038 81.9464 167.325 82.7069 167.325 83.6072C167.325 84.3677 167.124 85.0429 166.72 85.6327C166.316 86.207 165.758 86.6572 165.044 86.9831C164.33 87.3091 163.492 87.472 162.529 87.472ZM175.862 87.472C174.621 87.472 173.487 87.1849 172.463 86.6106C171.454 86.0363 170.647 85.2525 170.042 84.2591C169.452 83.2657 169.157 82.1327 169.157 80.8599C169.157 79.5871 169.452 78.4541 170.042 77.4607C170.647 76.4673 171.454 75.6835 172.463 75.1092C173.472 74.5349 174.605 74.2478 175.862 74.2478C177.104 74.2478 178.229 74.5349 179.238 75.1092C180.247 75.6835 181.046 76.4673 181.636 77.4607C182.242 78.4386 182.544 79.5716 182.544 80.8599C182.544 82.1327 182.242 83.2657 181.636 84.2591C181.031 85.2525 180.224 86.0363 179.215 86.6106C178.206 87.1849 177.088 87.472 175.862 87.472ZM175.862 84.6782C176.545 84.6782 177.143 84.5152 177.655 84.1892C178.183 83.8633 178.594 83.4132 178.889 82.8389C179.199 82.2491 179.355 81.5894 179.355 80.8599C179.355 80.1149 179.199 79.463 178.889 78.9042C178.594 78.3299 178.183 77.8798 177.655 77.5538C177.143 77.2124 176.545 77.0416 175.862 77.0416C175.164 77.0416 174.551 77.2124 174.023 77.5538C173.495 77.8798 173.076 78.3299 172.766 78.9042C172.471 79.463 172.323 80.1149 172.323 80.8599C172.323 81.5894 172.471 82.2491 172.766 82.8389C173.076 83.4132 173.495 83.8633 174.023 84.1892C174.551 84.5152 175.164 84.6782 175.862 84.6782ZM184.857 87.1926V69.5681H187.907V87.1926H184.857ZM195.117 87.1926V69.8474H201.566C202.746 69.8474 203.786 70.0647 204.686 70.4993C205.602 70.9184 206.316 71.5393 206.828 72.3619C207.34 73.169 207.597 74.1546 207.597 75.3188C207.597 76.5139 207.309 77.5306 206.735 78.3687C206.176 79.2069 205.416 79.8277 204.453 80.2313L208.435 87.1926H204.849L200.589 79.5794L202.637 80.7901H198.284V87.1926H195.117ZM198.284 77.9962H201.613C202.187 77.9962 202.684 77.8875 203.103 77.6702C203.522 77.4374 203.848 77.1192 204.081 76.7157C204.314 76.3121 204.43 75.8465 204.43 75.3188C204.43 74.7755 204.314 74.3099 204.081 73.9218C203.848 73.5183 203.522 73.2078 203.103 72.9905C202.684 72.7577 202.187 72.6413 201.613 72.6413H198.284V77.9962ZM215.556 87.472C214.252 87.472 213.111 87.1771 212.133 86.5873C211.155 85.9975 210.395 85.1981 209.852 84.1892C209.308 83.1804 209.037 82.0628 209.037 80.8366C209.037 79.5639 209.308 78.4386 209.852 77.4607C210.41 76.4673 211.163 75.6835 212.11 75.1092C213.072 74.5349 214.143 74.2478 215.323 74.2478C216.316 74.2478 217.186 74.4107 217.931 74.7367C218.691 75.0626 219.335 75.5128 219.863 76.0871C220.391 76.6614 220.794 77.321 221.074 78.066C221.353 78.7956 221.493 79.5871 221.493 80.4408C221.493 80.6581 221.477 80.8832 221.446 81.116C221.431 81.3488 221.392 81.5506 221.33 81.7213H211.551V79.3931H219.607L218.163 80.4874C218.303 79.7734 218.264 79.137 218.047 78.5783C217.845 78.0195 217.504 77.5771 217.023 77.2512C216.557 76.9252 215.99 76.7622 215.323 76.7622C214.687 76.7622 214.12 76.9252 213.623 77.2512C213.127 77.5616 212.746 78.0272 212.483 78.6481C212.234 79.2534 212.141 79.9907 212.203 80.8599C212.141 81.636 212.242 82.3267 212.506 82.932C212.785 83.5218 213.189 83.9797 213.716 84.3057C214.26 84.6316 214.881 84.7946 215.579 84.7946C216.278 84.7946 216.867 84.6471 217.349 84.3522C217.845 84.0573 218.233 83.6615 218.513 83.1648L220.981 84.3755C220.732 84.9808 220.344 85.5163 219.816 85.982C219.289 86.4476 218.66 86.8124 217.931 87.0762C217.217 87.3401 216.425 87.472 215.556 87.472ZM227.601 87.472C226.716 87.472 225.948 87.3246 225.296 87.0297C224.644 86.7348 224.14 86.3157 223.783 85.7724C223.426 85.2137 223.247 84.5695 223.247 83.84C223.247 83.1415 223.402 82.5207 223.713 81.9774C224.023 81.4187 224.504 80.953 225.156 80.5805C225.808 80.208 226.631 79.9441 227.624 79.7889L231.768 79.1137V81.442L228.206 82.0473C227.601 82.1559 227.151 82.35 226.856 82.6293C226.561 82.9087 226.413 83.2735 226.413 83.7236C226.413 84.1582 226.576 84.5074 226.902 84.7713C227.244 85.0196 227.663 85.1438 228.16 85.1438C228.796 85.1438 229.355 85.0119 229.836 84.748C230.333 84.4686 230.713 84.0884 230.977 83.6072C231.256 83.126 231.396 82.5983 231.396 82.024V78.7645C231.396 78.2213 231.179 77.7711 230.744 77.4141C230.325 77.0416 229.766 76.8554 229.068 76.8554C228.416 76.8554 227.834 77.0339 227.321 77.3909C226.825 77.7323 226.46 78.1902 226.227 78.7645L223.736 77.5538C223.984 76.8864 224.372 76.3121 224.9 75.831C225.443 75.3343 226.08 74.9462 226.809 74.6669C227.539 74.3875 228.33 74.2478 229.184 74.2478C230.224 74.2478 231.14 74.4418 231.931 74.8298C232.723 75.2023 233.336 75.7301 233.771 76.413C234.221 77.0804 234.446 77.8643 234.446 78.7645V87.1926H231.559V85.0274L232.211 84.9808C231.885 85.5241 231.497 85.982 231.047 86.3545C230.596 86.7115 230.084 86.9909 229.51 87.1926C228.936 87.3789 228.299 87.472 227.601 87.472ZM237.265 87.1926V69.5681H240.315V87.1926H237.265ZM243.759 82.2103V79.5328H253.654V82.2103H243.759ZM257.347 87.1926V69.8474H268.872V72.6413H260.513V77.0882H268.406V79.8821H260.513V84.3988H268.872V87.1926H257.347ZM275.757 87.472C274.406 87.472 273.227 87.1538 272.218 86.5175C271.225 85.8656 270.542 84.9886 270.169 83.8866L272.451 82.7923C272.777 83.5063 273.227 84.0651 273.801 84.4686C274.391 84.8722 275.043 85.074 275.757 85.074C276.316 85.074 276.758 84.9498 277.084 84.7015C277.41 84.4531 277.573 84.1272 277.573 83.7236C277.573 83.4753 277.503 83.2735 277.363 83.1183C277.239 82.9475 277.061 82.8078 276.828 82.6992C276.611 82.575 276.37 82.4741 276.106 82.3965L274.034 81.8145C272.963 81.504 272.148 81.0306 271.589 80.3943C271.046 79.7579 270.774 79.0051 270.774 78.1359C270.774 77.3598 270.968 76.6846 271.357 76.1103C271.76 75.5205 272.311 75.0626 273.01 74.7367C273.724 74.4107 274.538 74.2478 275.454 74.2478C276.649 74.2478 277.705 74.5349 278.621 75.1092C279.536 75.6835 280.188 76.4906 280.576 77.5306L278.248 78.6248C278.031 78.0505 277.666 77.5926 277.154 77.2512C276.642 76.9097 276.067 76.739 275.431 76.739C274.919 76.739 274.515 76.8554 274.22 77.0882C273.925 77.321 273.778 77.6237 273.778 77.9962C273.778 78.229 273.84 78.4308 273.964 78.6015C274.088 78.7723 274.259 78.912 274.476 79.0206C274.709 79.1293 274.973 79.2302 275.268 79.3233L277.293 79.9286C278.333 80.239 279.133 80.7047 279.692 81.3255C280.266 81.9464 280.553 82.7069 280.553 83.6072C280.553 84.3677 280.351 85.0429 279.948 85.6327C279.544 86.207 278.985 86.6572 278.271 86.9831C277.557 87.3091 276.719 87.472 275.757 87.472ZM288.671 87.3323C287.243 87.3323 286.133 86.9443 285.341 86.1682C284.565 85.3766 284.177 84.2669 284.177 82.8389V77.2512H281.989V74.5272H282.222C282.842 74.5272 283.324 74.3642 283.665 74.0382C284.007 73.7123 284.177 73.2389 284.177 72.618V71.6402H287.227V74.5272H290.138V77.2512H287.227V82.6759C287.227 83.095 287.297 83.452 287.437 83.7469C287.592 84.0418 287.825 84.2669 288.135 84.4221C288.461 84.5773 288.873 84.6549 289.369 84.6549C289.478 84.6549 289.602 84.6471 289.742 84.6316C289.897 84.6161 290.044 84.6006 290.184 84.585V87.1926C289.967 87.2237 289.718 87.2547 289.439 87.2858C289.16 87.3168 288.904 87.3323 288.671 87.3323ZM296.31 87.472C295.426 87.472 294.657 87.3246 294.005 87.0297C293.354 86.7348 292.849 86.3157 292.492 85.7724C292.135 85.2137 291.957 84.5695 291.957 83.84C291.957 83.1415 292.112 82.5207 292.422 81.9774C292.733 81.4187 293.214 80.953 293.866 80.5805C294.518 80.208 295.34 79.9441 296.334 79.7889L300.478 79.1137V81.442L296.916 82.0473C296.31 82.1559 295.86 82.35 295.565 82.6293C295.27 82.9087 295.123 83.2735 295.123 83.7236C295.123 84.1582 295.286 84.5074 295.612 84.7713C295.953 85.0196 296.373 85.1438 296.869 85.1438C297.506 85.1438 298.064 85.0119 298.546 84.748C299.042 84.4686 299.422 84.0884 299.686 83.6072C299.966 83.126 300.105 82.5983 300.105 82.024V78.7645C300.105 78.2213 299.888 77.7711 299.454 77.4141C299.034 77.0416 298.476 76.8554 297.777 76.8554C297.125 76.8554 296.543 77.0339 296.031 77.3909C295.534 77.7323 295.17 78.1902 294.937 78.7645L292.446 77.5538C292.694 76.8864 293.082 76.3121 293.61 75.831C294.153 75.3343 294.789 74.9462 295.519 74.6669C296.248 74.3875 297.04 74.2478 297.894 74.2478C298.934 74.2478 299.849 74.4418 300.641 74.8298C301.432 75.2023 302.046 75.7301 302.48 76.413C302.93 77.0804 303.155 77.8643 303.155 78.7645V87.1926H300.268V85.0274L300.92 84.9808C300.594 85.5241 300.206 85.982 299.756 86.3545C299.306 86.7115 298.794 86.9909 298.22 87.1926C297.645 87.3789 297.009 87.472 296.31 87.472ZM311.521 87.3323C310.093 87.3323 308.983 86.9443 308.192 86.1682C307.416 85.3766 307.027 84.2669 307.027 82.8389V77.2512H304.839V74.5272H305.072C305.693 74.5272 306.174 74.3642 306.515 74.0382C306.857 73.7123 307.027 73.2389 307.027 72.618V71.6402H310.077V74.5272H312.988V77.2512H310.077V82.6759C310.077 83.095 310.147 83.452 310.287 83.7469C310.442 84.0418 310.675 84.2669 310.985 84.4221C311.311 84.5773 311.723 84.6549 312.219 84.6549C312.328 84.6549 312.452 84.6471 312.592 84.6316C312.747 84.6161 312.895 84.6006 313.034 84.585V87.1926C312.817 87.2237 312.569 87.2547 312.289 87.2858C312.01 87.3168 311.754 87.3323 311.521 87.3323ZM321.258 87.472C319.954 87.472 318.813 87.1771 317.835 86.5873C316.857 85.9975 316.097 85.1981 315.553 84.1892C315.01 83.1804 314.739 82.0628 314.739 80.8366C314.739 79.5639 315.01 78.4386 315.553 77.4607C316.112 76.4673 316.865 75.6835 317.812 75.1092C318.774 74.5349 319.845 74.2478 321.025 74.2478C322.018 74.2478 322.887 74.4107 323.632 74.7367C324.393 75.0626 325.037 75.5128 325.565 76.0871C326.093 76.6614 326.496 77.321 326.775 78.066C327.055 78.7956 327.195 79.5871 327.195 80.4408C327.195 80.6581 327.179 80.8832 327.148 81.116C327.132 81.3488 327.094 81.5506 327.032 81.7213H317.253V79.3931H325.309L323.865 80.4874C324.005 79.7734 323.966 79.137 323.749 78.5783C323.547 78.0195 323.206 77.5771 322.724 77.2512C322.259 76.9252 321.692 76.7622 321.025 76.7622C320.388 76.7622 319.822 76.9252 319.325 77.2512C318.828 77.5616 318.448 78.0272 318.184 78.6481C317.936 79.2534 317.843 79.9907 317.905 80.8599C317.843 81.636 317.944 82.3267 318.208 82.932C318.487 83.5218 318.891 83.9797 319.418 84.3057C319.962 84.6316 320.582 84.7946 321.281 84.7946C321.979 84.7946 322.569 84.6471 323.05 84.3522C323.547 84.0573 323.935 83.6615 324.214 83.1648L326.682 84.3755C326.434 84.9808 326.046 85.5163 325.518 85.982C324.991 86.4476 324.362 86.8124 323.632 87.0762C322.918 87.3401 322.127 87.472 321.258 87.472Z" fill="white"/>
<path d="M126.695 73.138C129.578 70.184 134.212 70.2598 137.141 72.431" stroke="#4C4DDC" stroke-width="3.02668" stroke-linecap="round" stroke-linejoin="round"/>
<defs>
<filter id="filter0_i_1_436" x="13.1289" y="12.9946" width="82.4814" height="89.1789" filterUnits="userSpaceOnUse" color-interpolation-filters="sRGB">
<feFlood flood-opacity="0" result="BackgroundImageFix"/>
<feBlend mode="normal" in="SourceGraphic" in2="BackgroundImageFix" result="shape"/>
<feColorMatrix in="SourceAlpha" type="matrix" values="0 0 0 0 0 0 0 0 0 0 0 0 0 0 0 0 0 0 127 0" result="hardAlpha"/>
<feOffset dy="13.2596"/>
<feGaussianBlur stdDeviation="3.31539"/>
<feComposite in2="hardAlpha" operator="arithmetic" k2="-1" k3="1"/>
<feColorMatrix type="matrix" values="0 0 0 0 0 0 0 0 0 0 0 0 0 0 0 0 0 0 0.25 0"/>
<feBlend mode="normal" in2="shape" result="effect1_innerShadow_1_436"/>
</filter>
<clipPath id="clip0_1_436">
<rect width="108.469" height="108.469" fill="white"/>
</clipPath>
</defs>
</svg>