<svg width="42" height="41" viewBox="0 0 42 41" fill="none" xmlns="http://www.w3.org/2000/svg">
<g clip-path="url(#clip0_1_608)">
<g filter="url(#filter0_i_1_608)">
<path d="M32.8212 14.7089L23.8152 7.70402C23.0248 7.08917 22.0521 6.75534 21.0507 6.75534C20.0494 6.75534 19.0766 7.08917 18.2862 7.70402L9.27849 14.7089C8.73715 15.1299 8.29917 15.669 7.99801 16.2851C7.69684 16.9012 7.54045 17.578 7.54077 18.2637V30.4227C7.54077 31.3184 7.89661 32.1775 8.53001 32.8109C9.16341 33.4443 10.0225 33.8001 10.9183 33.8001H31.1832C32.0789 33.8001 32.938 33.4443 33.5714 32.8109C34.2048 32.1775 34.5606 31.3184 34.5606 30.4227V18.2637C34.5606 16.8739 33.9189 15.5617 32.8212 14.7089Z" fill="#4C4DDC"/>
</g>
<path d="M32.8212 14.7089L23.8152 7.70402C23.0248 7.08917 22.0521 6.75534 21.0507 6.75534C20.0494 6.75534 19.0766 7.08917 18.2862 7.70402L9.27849 14.7089C8.73715 15.1299 8.29917 15.669 7.99801 16.2851C7.69684 16.9012 7.54045 17.578 7.54077 18.2637V30.4227C7.54077 31.3184 7.89661 32.1775 8.53001 32.8109C9.16341 33.4443 10.0225 33.8001 10.9183 33.8001H31.1832C32.0789 33.8001 32.938 33.4443 33.5714 32.8109C34.2048 32.1775 34.5606 31.3184 34.5606 30.4227V18.2637C34.5606 16.8739 33.9189 15.5617 32.8212 14.7089Z" stroke="#4C4DDC" stroke-width="3.79967" stroke-linecap="round" stroke-linejoin="round"/>
<path d="M27.7551 25.3311C24.0229 27.5822 17.9739 27.5822 14.2451 25.3311" stroke="#F9FAFB" stroke-width="3.79967" stroke-linecap="round" stroke-linejoin="round"/>
</g>
<defs>
<filter id="filter0_i_1_608" x="5.64087" y="4.8555" width="30.8196" height="33.3236" filterUnits="userSpaceOnUse" color-interpolation-filters="sRGB">
<feFlood flood-opacity="0" result="BackgroundImageFix"/>
<feBlend mode="normal" in="SourceGraphic" in2="BackgroundImageFix" result="shape"/>
<feColorMatrix in="SourceAlpha" type="matrix" values="0 0 0 0 0 0 0 0 0 0 0 0 0 0 0 0 0 0 127 0" result="hardAlpha"/>
<feOffset dy="4.95825"/>
<feGaussianBlur stdDeviation="1.23956"/>
<feComposite in2="hardAlpha" operator="arithmetic" k2="-1" k3="1"/>
<feColorMatrix type="matrix" values="0 0 0 0 0 0 0 0 0 0 0 0 0 0 0 0 0 0 0.25 0"/>
<feBlend mode="normal" in2="shape" result="effect1_innerShadow_1_608"/>
</filter>
<clipPath id="clip0_1_608">
<rect width="40.5298" height="40.5298" fill="white" transform="translate(0.735107)"/>
</clipPath>
</defs>
</svg>
