<svg width="23" height="22" viewBox="0 0 23 22" fill="none" xmlns="http://www.w3.org/2000/svg">
<path d="M21.376 11.2137C21.376 10.4224 21.3104 9.84485 21.1686 9.24597H11.9474V12.8179H17.3601C17.251 13.7055 16.6617 15.0424 15.3521 15.9406L15.3338 16.0602L18.2494 18.2737L18.4514 18.2935C20.3065 16.6144 21.376 14.144 21.376 11.2137Z" fill="#4285F4"/>
<path d="M11.9468 20.625C14.5985 20.625 16.8247 19.7694 18.4507 18.2936L15.3515 15.9408C14.5222 16.5076 13.409 16.9033 11.9468 16.9033C9.34959 16.9033 7.14525 15.2243 6.35947 12.9036L6.24429 12.9131L3.21264 15.2125L3.17299 15.3205C4.78805 18.4647 8.1055 20.625 11.9468 20.625Z" fill="#34CAA5"/>
<path d="M6.36004 12.9036C6.1527 12.3047 6.03271 11.663 6.03271 11C6.03271 10.3369 6.15271 9.69524 6.34913 9.09636L6.34364 8.96881L3.27399 6.63257L3.17355 6.67938C2.50791 7.98412 2.12596 9.44929 2.12596 11C2.12596 12.5507 2.50791 14.0158 3.17355 15.3205L6.36004 12.9036Z" fill="#FDCF24"/>
<path d="M11.9468 5.09664C13.7911 5.09664 15.0351 5.87733 15.7444 6.52974L18.5163 3.8775C16.8139 2.32681 14.5986 1.375 11.9468 1.375C8.10553 1.375 4.78805 3.53526 3.17299 6.6794L6.34858 9.09638C7.14528 6.77569 9.34963 5.09664 11.9468 5.09664Z" fill="#EB4335"/>
</svg>